<svg width="48" height="48" viewBox="0 0 48 48" fill="none" xmlns="http://www.w3.org/2000/svg">
<path d="M23.5039 4C12.1879 4 3.00391 13.184 3.00391 24.5C3.00391 35.816 12.1879 45 23.5039 45H33.7539V40.9H23.5039C14.6069 40.9 7.10391 33.397 7.10391 24.5C7.10391 15.603 14.6069 8.1 23.5039 8.1C32.4009 8.1 39.9039 15.603 39.9039 24.5V27.4315C39.9039 29.051 38.4484 30.65 36.8289 30.65C35.2094 30.65 33.7539 29.051 33.7539 27.4315V24.5C33.7539 18.842 29.1619 14.25 23.5039 14.25C17.8459 14.25 13.2539 18.842 13.2539 24.5C13.2539 30.158 17.8459 34.75 23.5039 34.75C26.3329 34.75 28.9159 33.602 30.7609 31.7365C32.0934 33.561 34.3894 34.75 36.8289 34.75C40.8674 34.75 44.0039 31.47 44.0039 27.4315V24.5C44.0039 13.184 34.8199 4 23.5039 4ZM23.5039 30.65C20.1009 30.65 17.3539 27.903 17.3539 24.5C17.3539 21.097 20.1009 18.35 23.5039 18.35C26.9069 18.35 29.6539 21.097 29.6539 24.5C29.6539 27.903 26.9069 30.65 23.5039 30.65Z" fill="#FF7B00"/>
</svg>
