<svg width="195" height="51" viewBox="0 0 195 51" fill="none" xmlns="http://www.w3.org/2000/svg">
<path d="M102.204 50.1902C99.319 50.1884 92.872 50.1938 90.7236 50.1956C83.1685 35.3836 67.6831 53.2208 56.5293 49.6746C52.3195 48.793 50.2466 45.0648 49.6993 41.113H49.6742C49.2217 37.7345 49.8231 33.8836 51.285 30.8044C54.6477 30.7701 60.2595 31.046 60.9614 34.8806C61.2921 36.9719 59.8688 39.339 61.8064 41.0517C61.8064 41.0517 63.7441 42.8202 68.5204 40.7686C71.539 39.4724 79.6723 36.0777 82.8204 34.8013L71.9973 14.35C71.9973 14.35 67.4742 22.6718 67.335 22.9314C64.3338 21.0511 60.5689 20.1352 56.9547 19.8035C57.939 18.0458 65.4806 4.52814 67.4472 0.953125H76.5705C82.1088 11.597 98.9613 43.9578 102.202 50.1938L102.204 50.1902Z" fill="white"/>
<path d="M53.0041 50.0065C44.7876 50.6447 35.7899 48.9734 30.563 45.7356V35.5117H30.6597C34.5697 40.41 42.063 42.3769 48.102 42.6059C48.57 44.7548 49.3706 46.4675 50.5811 47.9603H50.5907C51.1767 48.6525 51.8612 49.2781 52.6366 49.7811C52.6366 49.7829 52.6386 49.7829 52.6386 49.7829C52.7604 49.8604 52.8822 49.9344 53.0021 50.0065H53.0041Z" fill="white"/>
<path d="M70.5025 37.6577C70.4657 37.8632 70.4309 38.0471 70.4038 38.213C68.3831 39.228 65.7087 40.5711 63.2935 40.1167C60.6211 39.4822 64.0979 35.2022 61.2205 32.1356C61.0987 31.9896 60.9537 31.8526 60.8106 31.7192H60.8086C60.331 31.2775 59.7025 30.8845 59.0818 30.5852C54.582 28.5985 49.446 29.316 44.6542 29.5432C39.4814 30.1489 32.46 30.834 26.9605 30.834C23.6692 30.834 20.6371 30.7114 18.7305 30.2589C15.1105 29.3971 13.6506 27.7187 12.6218 26.5667C12.2099 25.9898 11.798 25.2236 11.3881 24.6485C11.3881 25.2272 11.3823 30.2607 11.3823 33.1236C11.3823 39.3235 11.3823 48.4584 11.3823 50.063H0.708038V0.932252C5.77637 1.00076 19.8462 1.00076 36.3816 0.993548V2.28437C33.6087 3.81858 31.5589 5.96575 30.2788 8.6754C26.7342 8.69163 12.4284 8.76374 11.3842 8.76915C11.0052 16.1824 15.652 22.4995 23.8742 22.9899C24.7212 23.1702 31.8702 22.9304 33.0672 22.8114C30.4567 19.4149 29.9906 13.763 31.6575 9.79316C36.6968 -2.20828 56.0091 0.322895 64.1482 3.17137C63.5487 4.24765 62.8062 5.57995 62.2106 6.64902C61.6556 7.64599 60.9208 8.96926 60.36 9.97705C54.2494 8.08408 42.3917 6.19471 40.1698 14.1542C39.6767 16.4636 40.1621 19.752 41.4809 20.657C44.7953 22.9899 49.0418 20.8084 55.0983 21.1979C59.6174 21.5278 63.7247 22.3192 67.1339 24.8378H67.1358C71.6956 28.1856 71.1909 34.6145 70.5025 37.6541V37.6577Z" fill="white"/>
<path d="M118.546 6.71665H123.319V7.36927H119.343V9.92027H122.596V10.5423H119.343V13.7459H118.546V6.71484V6.71665Z" fill="white"/>
<path d="M123.566 12.4317C123.566 11.5375 124.203 11.0759 125.334 10.9461L126.788 10.7947C127.391 10.7244 127.575 10.6036 127.575 10.4431V10.1926C127.575 9.28934 127.08 8.98826 126.109 8.98826C125.139 8.98826 124.634 9.30015 124.634 9.99244V10.1132H123.901V9.94196C123.901 8.89812 124.698 8.42578 126.131 8.42578C127.563 8.42578 128.339 8.9486 128.339 10.2034V13.7477H127.606V12.8247H127.573C127.422 13.1059 126.776 13.8487 125.398 13.8487C124.33 13.8487 123.566 13.3962 123.566 12.4335V12.4317ZM125.57 13.2754C126.939 13.2754 127.573 12.4209 127.573 11.9088V11.0759C127.531 11.1967 127.326 11.2977 126.732 11.3572L125.516 11.4978C124.622 11.5988 124.33 11.9088 124.33 12.392C124.33 13.0356 124.858 13.2754 125.57 13.2754Z" fill="white"/>
<path d="M129.265 11.1461C129.265 9.30902 130.514 8.42383 131.959 8.42383C132.961 8.42383 134.113 8.84569 134.318 10.2717H133.618C133.446 9.35769 132.703 9.03679 131.949 9.03679C130.83 9.03679 130 9.75972 130 11.1461C130 12.5325 130.83 13.2356 131.949 13.2356C132.703 13.2356 133.446 12.9147 133.618 11.9808H134.318C134.125 13.4267 132.961 13.8485 131.959 13.8485C130.516 13.8485 129.265 12.985 129.265 11.1461Z" fill="white"/>
<path d="M137.538 13.2362C138.582 13.2362 139.251 12.6232 139.251 11.5992V8.52539H140.015V13.7482H139.251V12.7638C139.133 13.1154 138.561 13.8491 137.29 13.8491C136.192 13.8491 135.266 13.2975 135.266 11.7398V8.52539H136.031V11.5992C136.031 12.6232 136.484 13.2362 137.54 13.2362H137.538Z" fill="white"/>
<path d="M141.264 6.7168H142.03V13.7478H141.264V6.7168Z" fill="white"/>
<path d="M143.03 11.1354C143.03 9.25683 144.246 8.42393 145.561 8.42393C146.39 8.42393 147.177 8.75565 147.585 9.41729V6.71484H148.351V13.7459H147.585V12.8517C147.175 13.5151 146.39 13.845 145.561 13.845C144.246 13.845 143.03 13.0013 143.03 11.1336V11.1354ZM145.679 13.2447C146.659 13.2447 147.618 12.5722 147.618 11.1354C147.618 9.69853 146.659 9.02607 145.679 9.02607C144.698 9.02607 143.751 9.69853 143.751 11.1354C143.751 12.5722 144.689 13.2447 145.679 13.2447Z" fill="white"/>
<path d="M149.332 12.4317C149.332 11.5375 149.968 11.0759 151.099 10.9461L152.553 10.7947C153.157 10.7244 153.34 10.6036 153.34 10.4431V10.1926C153.34 9.28934 152.845 8.98826 151.874 8.98826C150.904 8.98826 150.399 9.30015 150.399 9.99244V10.1132H149.666V9.94196C149.666 8.89812 150.463 8.42578 151.896 8.42578C153.329 8.42578 154.104 8.9486 154.104 10.2034V13.7477H153.371V12.8247H153.338C153.187 13.1059 152.542 13.8487 151.163 13.8487C150.095 13.8487 149.332 13.3962 149.332 12.4335V12.4317ZM151.335 13.2754C152.704 13.2754 153.338 12.4209 153.338 11.9088V11.0759C153.296 11.1967 153.091 11.2977 152.497 11.3572L151.281 11.4978C150.387 11.5988 150.095 11.9088 150.095 12.392C150.095 13.0356 150.623 13.2754 151.335 13.2754Z" fill="white"/>
<path d="M155.04 11.1354C155.04 9.25683 156.256 8.42393 157.571 8.42393C158.401 8.42393 159.188 8.75565 159.596 9.41729V6.71484H160.362V13.7459H159.596V12.8517C159.186 13.5151 158.401 13.845 157.571 13.845C156.256 13.845 155.04 13.0013 155.04 11.1336V11.1354ZM157.689 13.2447C158.67 13.2447 159.629 12.5722 159.629 11.1354C159.629 9.69853 158.67 9.02607 157.689 9.02607C156.709 9.02607 155.761 9.69853 155.761 11.1354C155.761 12.5722 156.699 13.2447 157.689 13.2447Z" fill="white"/>
<path d="M161.342 11.1551C161.342 9.25674 162.506 8.42383 163.939 8.42383C165.372 8.42383 166.416 9.27837 166.416 10.9947C166.416 11.1659 166.405 11.2651 166.383 11.366H162.085C162.148 12.6424 162.817 13.2734 164.003 13.2734C164.682 13.2734 165.349 13.0625 165.641 12.3089H166.341C165.964 13.4645 165.016 13.8449 163.993 13.8449C162.431 13.8449 161.344 12.9706 161.344 11.1533L161.342 11.1551ZM165.683 10.8036C165.662 9.62812 164.993 8.99533 163.927 8.99533C162.862 8.99533 162.172 9.57764 162.096 10.8036H165.683Z" fill="white"/>
<path d="M169.613 11.1354C169.613 9.25683 170.829 8.42393 172.144 8.42393C172.974 8.42393 173.761 8.75565 174.169 9.41729V6.71484H174.934V13.7459H174.169V12.8517C173.759 13.5151 172.974 13.845 172.144 13.845C170.829 13.845 169.613 13.0013 169.613 11.1336V11.1354ZM172.262 13.2447C173.242 13.2447 174.201 12.5722 174.201 11.1354C174.201 9.69853 173.242 9.02607 172.262 9.02607C171.281 9.02607 170.334 9.69853 170.334 11.1354C170.334 12.5722 171.272 13.2447 172.262 13.2447Z" fill="white"/>
<path d="M175.915 11.1551C175.915 9.25674 177.079 8.42383 178.512 8.42383C179.945 8.42383 180.989 9.27837 180.989 10.9947C180.989 11.1659 180.977 11.2651 180.956 11.366H176.657C176.721 12.6424 177.39 13.2734 178.575 13.2734C179.254 13.2734 179.921 13.0625 180.213 12.3089H180.913C180.536 13.4645 179.589 13.8449 178.566 13.8449C177.003 13.8449 175.917 12.9706 175.917 11.1533L175.915 11.1551ZM180.256 10.8036C180.235 9.62812 179.566 8.99533 178.5 8.99533C177.435 8.99533 176.744 9.57764 176.669 10.8036H180.256Z" fill="white"/>
<path d="M118.541 23.4884H121.128C121.178 24.4691 121.813 25.2786 123.433 25.2786C124.752 25.2786 125.52 24.7485 125.52 23.8615C125.52 23.1152 124.968 22.7726 123.899 22.5689L122.263 22.257C120.411 21.9307 118.858 21.1519 118.858 19.2066C118.858 17.1045 120.677 16.0156 123.365 16.0156C126.053 16.0156 127.857 17.137 127.857 19.3779H125.286C125.318 18.3972 124.468 17.9465 123.315 17.9465C121.963 17.9465 121.478 18.5684 121.478 19.2066C121.478 19.7042 121.813 20.1874 122.864 20.3893L124.367 20.6687C127.123 21.1988 128.175 22.1939 128.175 23.8435C128.175 26.1944 126.088 27.2058 123.416 27.2058C120.393 27.2058 118.541 25.8825 118.541 23.4847V23.4884Z" fill="white"/>
<path d="M129.242 24.9056C129.242 23.1154 130.812 22.726 132.315 22.5241L133.784 22.3222C134.587 22.214 134.836 22.0878 134.836 21.6371V21.5289C134.836 20.6726 134.235 20.44 133.485 20.44C132.734 20.44 131.999 20.6744 131.999 21.5145V21.6551L129.712 21.6713V21.2982C129.712 19.7099 130.847 18.8066 133.552 18.8066C136.258 18.8066 137.226 19.6792 137.226 21.437V27.0564H134.906V25.6249H134.805C134.639 26.0612 133.937 27.2132 132.034 27.2132C130.615 27.2132 129.246 26.575 129.246 24.9092L129.242 24.9056ZM132.866 25.5907C134.018 25.5907 134.836 24.875 134.836 24.2368V23.3335C134.703 23.521 134.285 23.5823 133.9 23.6454L132.682 23.8474C131.93 23.9555 131.68 24.2981 131.68 24.7199C131.68 25.2175 132.03 25.5925 132.866 25.5925V25.5907Z" fill="white"/>
<path d="M142.666 25.325C143.685 25.325 144.486 24.7805 144.486 23.551V18.9592H146.924V27.0539H144.486V25.3574H144.385C144.234 26.12 143.401 27.2089 141.614 27.2089C139.928 27.2089 138.624 26.1976 138.624 24.0955V18.9592H141.063V23.551C141.063 24.7805 141.647 25.325 142.666 25.325ZM143.351 15.8457H145.472L143.702 18.0253H141.599L143.352 15.8457H143.351Z" fill="white"/>
<path d="M148.241 23.0052C148.241 20.0323 150.227 18.8028 152.048 18.8028C153.334 18.8028 154.286 19.4248 154.603 20.1261V16.1562H157.041V27.0526H154.603V25.8843C154.286 26.5856 153.334 27.2076 152.048 27.2076C150.229 27.2076 148.241 25.9781 148.241 23.0052ZM152.632 25.3254C153.702 25.3254 154.703 24.5935 154.703 23.0052C154.703 21.4169 153.702 20.685 152.632 20.685C151.563 20.685 150.546 21.4169 150.546 23.0052C150.546 24.5935 151.548 25.3254 152.632 25.3254Z" fill="white"/>
<path d="M158.358 22.9907C158.358 19.971 160.412 18.8027 162.717 18.8027C165.022 18.8027 166.842 19.8916 166.842 22.9583C166.842 23.2539 166.824 23.409 166.791 23.5802H160.681C160.814 24.9342 161.566 25.4786 162.767 25.4786C163.887 25.4786 164.37 25.0586 164.571 24.4041H166.726C166.292 26.2556 164.755 27.2057 162.734 27.2057C160.53 27.2057 158.36 26.0699 158.36 22.9871L158.358 22.9907ZM164.537 22.2425C164.504 21.3087 163.985 20.5298 162.649 20.5298C161.514 20.5298 160.845 21.1212 160.679 22.2425H164.535H164.537Z" fill="white"/>
<path d="M122.431 29.4609H125.653L129.878 40.3572H127.256L126.504 38.3182H121.579L120.826 40.3572H118.204L122.427 29.4609H122.431ZM125.871 36.5911L124.118 31.8443H123.967L122.213 36.5911H125.87H125.871Z" fill="white"/>
<path d="M128.774 32.2656H131.263L133.432 38.1807H133.516L135.685 32.2656H138.156L135.001 40.3603H131.928L128.772 32.2656H128.774Z" fill="white"/>
<path d="M138.257 38.2103C138.257 36.4201 139.827 36.0307 141.33 35.8288L142.799 35.6268C143.602 35.5187 143.851 35.3925 143.851 34.9418V34.8336C143.851 33.9773 143.25 33.7447 142.5 33.7447C141.749 33.7447 141.015 33.9791 141.015 34.8192V34.9598L138.727 34.976V34.6028C138.727 33.0145 139.862 32.1113 142.567 32.1113C145.273 32.1113 146.241 32.9839 146.241 34.7417V40.3611H143.921V38.9296H143.82C143.654 39.3659 142.952 40.5179 141.049 40.5179C139.63 40.5179 138.261 39.8797 138.261 38.2139L138.257 38.2103ZM141.881 38.8954C143.033 38.8954 143.851 38.1797 143.851 37.5414V36.6382C143.718 36.8257 143.3 36.887 142.915 36.9501L141.697 37.152C140.945 37.2602 140.696 37.6027 140.696 38.0246C140.696 38.5222 141.046 38.8972 141.881 38.8972V38.8954Z" fill="white"/>
<path d="M152.315 33.9914C151.296 33.9914 150.496 34.5358 150.496 35.7654V40.3572H148.057V32.2625H150.496V33.9589H150.596C150.747 33.1963 151.581 32.1074 153.367 32.1074C155.054 32.1074 156.355 33.1188 156.355 35.2209V40.3572H153.916V35.7654C153.916 34.5358 153.332 33.9914 152.313 33.9914H152.315Z" fill="white"/>
<path d="M161.899 42.6C161.899 42.1331 161.282 41.9781 160.814 42.2575L160.162 41.5111L161.197 40.4529C159.36 40.1734 157.674 38.9421 157.674 36.328C157.674 33.3083 159.911 32.1094 162.048 32.1094C163.568 32.1094 165.705 32.6701 166.022 35.3941H163.817C163.601 34.4134 162.966 34.0096 162.03 34.0096C160.644 34.0096 159.977 34.9903 159.977 36.3298C159.977 37.6693 160.644 38.6176 162.03 38.6176C162.999 38.6176 163.601 38.1669 163.817 37.2006H166.022C165.788 39.5208 164.185 40.2978 162.765 40.4691L161.998 41.1704H162.114C162.964 41.1704 163.566 41.7924 163.566 42.6343C163.566 43.9269 162.129 44.2839 160.777 44.2839V43.1625C161.394 43.1932 161.895 43.0219 161.895 42.6018L161.899 42.6Z" fill="white"/>
<path d="M166.973 38.2103C166.973 36.4201 168.543 36.0307 170.046 35.8288L171.515 35.6268C172.318 35.5187 172.567 35.3925 172.567 34.9418V34.8336C172.567 33.9773 171.966 33.7447 171.216 33.7447C170.465 33.7447 169.731 33.9791 169.731 34.8192V34.9598L167.443 34.976V34.6028C167.443 33.0145 168.578 32.1113 171.283 32.1113C173.989 32.1113 174.957 32.9839 174.957 34.7417V40.3611H172.637V38.9296H172.536C172.37 39.3659 171.668 40.5179 169.765 40.5179C168.346 40.5179 166.977 39.8797 166.977 38.2139L166.973 38.2103ZM170.597 38.8954C171.749 38.8954 172.567 38.1797 172.567 37.5414V36.6382C172.434 36.8257 172.016 36.887 171.631 36.9501L170.413 37.152C169.661 37.2602 169.412 37.6027 169.412 38.0246C169.412 38.5222 169.762 38.8972 170.597 38.8972V38.8954Z" fill="white"/>
<path d="M176.189 36.3118C176.189 33.339 178.175 32.1094 179.997 32.1094C181.283 32.1094 182.234 32.7314 182.551 33.4327V29.4629H184.99V40.3592H182.551V39.191C182.234 39.8923 181.283 40.5142 179.997 40.5142C178.177 40.5142 176.189 39.2847 176.189 36.3118ZM180.581 38.6321C181.65 38.6321 182.652 37.9001 182.652 36.3118C182.652 34.7235 181.65 33.9916 180.581 33.9916C179.511 33.9916 178.494 34.7235 178.494 36.3118C178.494 37.9001 179.496 38.6321 180.581 38.6321Z" fill="white"/>
<path d="M186.307 38.2103C186.307 36.4201 187.877 36.0307 189.379 35.8288L190.849 35.6268C191.651 35.5187 191.901 35.3925 191.901 34.9418V34.8336C191.901 33.9773 191.299 33.7447 190.549 33.7447C189.799 33.7447 189.064 33.9791 189.064 34.8192V34.9598L186.776 34.976V34.6028C186.776 33.0145 187.912 32.1113 190.617 32.1113C193.322 32.1113 194.291 32.9839 194.291 34.7417V40.3611H191.971V38.9296H191.87C191.704 39.3659 191.002 40.5179 189.099 40.5179C187.68 40.5179 186.31 39.8797 186.31 38.2139L186.307 38.2103ZM189.93 38.8954C191.083 38.8954 191.901 38.1797 191.901 37.5414V36.6382C191.767 36.8257 191.35 36.887 190.965 36.9501L189.747 37.152C188.994 37.2602 188.745 37.6027 188.745 38.0246C188.745 38.5222 189.095 38.8972 189.93 38.8972V38.8954Z" fill="white"/>
</svg>
