<svg width="194" height="93" viewBox="0 0 194 93" fill="none" xmlns="http://www.w3.org/2000/svg">
<path d="M101.496 71.1902C98.6109 71.1884 92.1638 71.1938 90.0154 71.1956C82.4603 56.3836 66.975 74.2208 55.8211 70.6746C51.6114 69.793 49.5384 66.0648 48.9912 62.113H48.966C48.5135 58.7345 49.1149 54.8836 50.5768 51.8044C53.9396 51.7701 59.5513 52.046 60.2533 55.8806C60.5839 57.9719 59.1607 60.339 61.0983 62.0517C61.0983 62.0517 63.0359 63.8202 67.8123 61.7686C70.8308 60.4724 78.9641 57.0777 82.1123 55.8013L71.2891 35.35C71.2891 35.35 66.7661 43.6718 66.6269 43.9314C63.6257 42.0511 59.8607 41.1352 56.2466 40.8035C57.2308 39.0458 64.7724 25.5281 66.739 21.9531H75.8624C81.4006 32.597 98.2532 64.9578 101.494 71.1938L101.496 71.1902Z" fill="white"/>
<path d="M52.296 71.0045C44.0796 71.6427 35.0819 69.9715 29.855 66.7336V56.5098H29.9517C33.8617 61.4081 41.3549 63.3749 47.394 63.6039C47.862 65.7529 48.6625 67.4656 49.873 68.9583H49.8827C50.4686 69.6506 51.1532 70.2762 51.9286 70.7792C51.9286 70.781 51.9305 70.781 51.9305 70.781C52.0524 70.8585 52.1742 70.9324 52.2941 71.0045H52.296Z" fill="white"/>
<path d="M69.7944 58.6577C69.7577 58.8632 69.7229 59.0471 69.6958 59.213C67.675 60.228 65.0007 61.5711 62.5854 61.1167C59.913 60.4822 63.3899 56.2022 60.5125 53.1356C60.3907 52.9896 60.2456 52.8526 60.1025 52.7192H60.1006C59.623 52.2775 58.9945 51.8845 58.3738 51.5852C53.874 49.5985 48.7379 50.316 43.9461 50.5432C38.7734 51.1489 31.752 51.834 26.2524 51.834C22.9612 51.834 19.9291 51.7114 18.0224 51.2589C14.4025 50.3971 12.9425 48.7187 11.9138 47.5667C11.5019 46.9898 11.09 46.2236 10.68 45.6485C10.68 46.2272 10.6742 51.2607 10.6742 54.1236C10.6742 60.3235 10.6742 69.4584 10.6742 71.063H0V21.9323C5.06833 22.0008 19.1382 22.0008 35.6736 21.9935V23.2844C32.9006 24.8186 30.8509 26.9658 29.5707 29.6754C26.0262 29.6916 11.7204 29.7637 10.6762 29.7692C10.2972 37.1824 14.9439 43.4995 23.1662 43.9899C24.0132 44.1702 31.1622 43.9304 32.3592 43.8114C29.7486 40.4149 29.2826 34.763 30.9495 30.7932C35.9888 18.7917 55.3011 21.3229 63.4402 24.1714C62.8407 25.2477 62.0981 26.5799 61.5026 27.649C60.9476 28.646 60.2128 29.9693 59.652 30.977C53.5414 29.0841 41.6837 27.1947 39.4618 35.1542C38.9687 37.4636 39.4541 40.752 40.7729 41.657C44.0873 43.9899 48.3338 41.8084 54.3903 42.1979C58.9094 42.5278 63.0167 43.3192 66.4259 45.8378H66.4278C70.9875 49.1856 70.4828 55.6145 69.7944 58.6541V58.6577Z" fill="white"/>
<path d="M117.838 27.7166H122.611V28.3693H118.635V30.9203H121.888V31.5423H118.635V34.7459H117.838V27.7148V27.7166Z" fill="white"/>
<path d="M122.858 33.4317C122.858 32.5375 123.495 32.0759 124.626 31.9461L126.08 31.7947C126.683 31.7244 126.867 31.6036 126.867 31.4431V31.1926C126.867 30.2893 126.372 29.9883 125.401 29.9883C124.431 29.9883 123.926 30.3002 123.926 30.9924V31.1132H123.193V30.942C123.193 29.8981 123.99 29.4258 125.423 29.4258C126.855 29.4258 127.631 29.9486 127.631 31.2034V34.7477H126.898V33.8247H126.865C126.714 34.1059 126.068 34.8487 124.69 34.8487C123.622 34.8487 122.858 34.3962 122.858 33.4335V33.4317ZM124.862 34.2754C126.231 34.2754 126.865 33.4209 126.865 32.9088V32.0759C126.823 32.1967 126.618 32.2977 126.024 32.3572L124.808 32.4978C123.914 32.5988 123.622 32.9088 123.622 33.392C123.622 34.0356 124.15 34.2754 124.862 34.2754Z" fill="white"/>
<path d="M128.557 32.1461C128.557 30.309 129.806 29.4238 131.251 29.4238C132.253 29.4238 133.405 29.8457 133.61 31.2717H132.91C132.738 30.3577 131.995 30.0368 131.241 30.0368C130.122 30.0368 129.292 30.7597 129.292 32.1461C129.292 33.5325 130.122 34.2356 131.241 34.2356C131.995 34.2356 132.738 33.9147 132.91 32.9808H133.61C133.417 34.4267 132.253 34.8485 131.251 34.8485C129.808 34.8485 128.557 33.985 128.557 32.1461Z" fill="white"/>
<path d="M136.83 34.2362C137.874 34.2362 138.543 33.6232 138.543 32.5992V29.5254H139.307V34.7482H138.543V33.7638C138.425 34.1154 137.852 34.8491 136.582 34.8491C135.484 34.8491 134.557 34.2975 134.557 32.7398V29.5254H135.323V32.5992C135.323 33.6232 135.776 34.2362 136.831 34.2362H136.83Z" fill="white"/>
<path d="M140.556 27.7168H141.322V34.7478H140.556V27.7168Z" fill="white"/>
<path d="M142.322 32.1354C142.322 30.2568 143.538 29.4239 144.853 29.4239C145.682 29.4239 146.469 29.7556 146.877 30.4173V27.7148H147.643V34.7459H146.877V33.8517C146.467 34.5151 145.682 34.845 144.853 34.845C143.538 34.845 142.322 34.0013 142.322 32.1336V32.1354ZM144.971 34.2447C145.951 34.2447 146.91 33.5722 146.91 32.1354C146.91 30.6985 145.951 30.0261 144.971 30.0261C143.99 30.0261 143.043 30.6985 143.043 32.1354C143.043 33.5722 143.981 34.2447 144.971 34.2447Z" fill="white"/>
<path d="M148.624 33.4317C148.624 32.5375 149.26 32.0759 150.391 31.9461L151.845 31.7947C152.448 31.7244 152.632 31.6036 152.632 31.4431V31.1926C152.632 30.2893 152.137 29.9883 151.166 29.9883C150.196 29.9883 149.691 30.3002 149.691 30.9924V31.1132H148.958V30.942C148.958 29.8981 149.755 29.4258 151.188 29.4258C152.621 29.4258 153.396 29.9486 153.396 31.2034V34.7477H152.663V33.8247H152.63C152.479 34.1059 151.834 34.8487 150.455 34.8487C149.387 34.8487 148.624 34.3962 148.624 33.4335V33.4317ZM150.627 34.2754C151.996 34.2754 152.63 33.4209 152.63 32.9088V32.0759C152.588 32.1967 152.383 32.2977 151.789 32.3572L150.573 32.4978C149.679 32.5988 149.387 32.9088 149.387 33.392C149.387 34.0356 149.915 34.2754 150.627 34.2754Z" fill="white"/>
<path d="M154.332 32.1354C154.332 30.2568 155.548 29.4239 156.863 29.4239C157.693 29.4239 158.48 29.7556 158.888 30.4173V27.7148H159.653V34.7459H158.888V33.8517C158.478 34.5151 157.693 34.845 156.863 34.845C155.548 34.845 154.332 34.0013 154.332 32.1336V32.1354ZM156.981 34.2447C157.961 34.2447 158.921 33.5722 158.921 32.1354C158.921 30.6985 157.961 30.0261 156.981 30.0261C156.001 30.0261 155.053 30.6985 155.053 32.1354C155.053 33.5722 155.991 34.2447 156.981 34.2447Z" fill="white"/>
<path d="M160.634 32.1551C160.634 30.2567 161.798 29.4238 163.231 29.4238C164.664 29.4238 165.708 30.2784 165.708 31.9947C165.708 32.1659 165.697 32.2651 165.675 32.366H161.377C161.44 33.6424 162.109 34.2734 163.295 34.2734C163.974 34.2734 164.641 34.0625 164.933 33.3089H165.633C165.256 34.4645 164.308 34.8449 163.285 34.8449C161.723 34.8449 160.636 33.9706 160.636 32.1533L160.634 32.1551ZM164.975 31.8036C164.954 30.6281 164.285 29.9953 163.219 29.9953C162.154 29.9953 161.464 30.5776 161.388 31.8036H164.975Z" fill="white"/>
<path d="M168.905 32.1354C168.905 30.2568 170.121 29.4239 171.436 29.4239C172.265 29.4239 173.052 29.7556 173.46 30.4173V27.7148H174.226V34.7459H173.46V33.8517C173.05 34.5151 172.265 34.845 171.436 34.845C170.121 34.845 168.905 34.0013 168.905 32.1336V32.1354ZM171.554 34.2447C172.534 34.2447 173.493 33.5722 173.493 32.1354C173.493 30.6985 172.534 30.0261 171.554 30.0261C170.573 30.0261 169.626 30.6985 169.626 32.1354C169.626 33.5722 170.564 34.2447 171.554 34.2447Z" fill="white"/>
<path d="M175.207 32.1551C175.207 30.2567 176.371 29.4238 177.804 29.4238C179.236 29.4238 180.281 30.2784 180.281 31.9947C180.281 32.1659 180.269 32.2651 180.248 32.366H175.949C176.013 33.6424 176.682 34.2734 177.867 34.2734C178.546 34.2734 179.213 34.0625 179.505 33.3089H180.205C179.828 34.4645 178.881 34.8449 177.858 34.8449C176.295 34.8449 175.208 33.9706 175.208 32.1533L175.207 32.1551ZM179.548 31.8036C179.527 30.6281 178.857 29.9953 177.792 29.9953C176.726 29.9953 176.036 30.5776 175.961 31.8036H179.548Z" fill="white"/>
<path d="M117.833 44.4884H120.42C120.47 45.4691 121.104 46.2786 122.725 46.2786C124.044 46.2786 124.811 45.7485 124.811 44.8615C124.811 44.1152 124.26 43.7726 123.191 43.5689L121.555 43.257C119.702 42.9307 118.15 42.1519 118.15 40.2066C118.15 38.1045 119.969 37.0156 122.657 37.0156C125.345 37.0156 127.149 38.137 127.149 40.3779H124.577C124.61 39.3972 123.759 38.9465 122.607 38.9465C121.255 38.9465 120.77 39.5684 120.77 40.2066C120.77 40.7042 121.104 41.1874 122.156 41.3893L123.659 41.6687C126.414 42.1988 127.466 43.1939 127.466 44.8435C127.466 47.1944 125.38 48.2058 122.707 48.2058C119.685 48.2058 117.833 46.8825 117.833 44.4847V44.4884Z" fill="white"/>
<path d="M128.534 45.9056C128.534 44.1154 130.104 43.726 131.607 43.5241L133.076 43.3222C133.879 43.214 134.128 43.0878 134.128 42.6371V42.5289C134.128 41.6726 133.527 41.44 132.777 41.44C132.026 41.44 131.291 41.6744 131.291 42.5145V42.6551L129.004 42.6713V42.2982C129.004 40.7099 130.139 39.8066 132.844 39.8066C135.55 39.8066 136.518 40.6792 136.518 42.437V48.0564H134.198V46.6249H134.097C133.931 47.0612 133.229 48.2132 131.326 48.2132C129.907 48.2132 128.538 47.575 128.538 45.9092L128.534 45.9056ZM132.158 46.5907C133.31 46.5907 134.128 45.875 134.128 45.2368V44.3335C133.995 44.521 133.577 44.5823 133.192 44.6454L131.974 44.8474C131.222 44.9555 130.972 45.2981 130.972 45.7199C130.972 46.2175 131.322 46.5925 132.158 46.5925V46.5907Z" fill="white"/>
<path d="M141.958 46.325C142.977 46.325 143.778 45.7805 143.778 44.551V39.9592H146.216V48.0539H143.778V46.3574H143.677C143.526 47.12 142.693 48.2089 140.906 48.2089C139.22 48.2089 137.917 47.1976 137.917 45.0955V39.9592H140.355V44.551C140.355 45.7805 140.939 46.325 141.958 46.325ZM142.643 36.8457H144.764L142.994 39.0253H140.891L142.644 36.8457H142.643Z" fill="white"/>
<path d="M147.533 44.0052C147.533 41.0323 149.519 39.8028 151.34 39.8028C152.626 39.8028 153.578 40.4248 153.895 41.1261V37.1562H156.333V48.0526H153.895V46.8843C153.578 47.5856 152.626 48.2076 151.34 48.2076C149.521 48.2076 147.533 46.9781 147.533 44.0052ZM151.924 46.3254C152.994 46.3254 153.996 45.5935 153.996 44.0052C153.996 42.4169 152.994 41.685 151.924 41.685C150.855 41.685 149.838 42.4169 149.838 44.0052C149.838 45.5935 150.84 46.3254 151.924 46.3254Z" fill="white"/>
<path d="M157.65 43.9907C157.65 40.971 159.704 39.8027 162.009 39.8027C164.314 39.8027 166.133 40.8916 166.133 43.9583C166.133 44.2539 166.116 44.409 166.083 44.5802H159.973C160.106 45.9342 160.858 46.4786 162.059 46.4786C163.179 46.4786 163.662 46.0586 163.863 45.4041H166.017C165.584 47.2556 164.047 48.2057 162.026 48.2057C159.822 48.2057 157.652 47.0699 157.652 43.9871L157.65 43.9907ZM163.828 43.2425C163.796 42.3087 163.277 41.5298 161.941 41.5298C160.806 41.5298 160.137 42.1212 159.971 43.2425H163.827H163.828Z" fill="white"/>
<path d="M121.723 50.4609H124.945L129.17 61.3572H126.548L125.796 59.3182H120.87L120.118 61.3572H117.496L121.719 50.4609H121.723ZM125.163 57.5911L123.409 52.8443H123.259L121.505 57.5911H125.161H125.163Z" fill="white"/>
<path d="M128.066 53.2637H130.555L132.724 59.1788H132.807L134.977 53.2637H137.448L134.293 61.3584H131.22L128.064 53.2637H128.066Z" fill="white"/>
<path d="M137.549 59.2103C137.549 57.4201 139.119 57.0307 140.622 56.8288L142.091 56.6268C142.894 56.5187 143.143 56.3925 143.143 55.9418V55.8336C143.143 54.9773 142.542 54.7447 141.792 54.7447C141.041 54.7447 140.307 54.9791 140.307 55.8192V55.9598L138.019 55.976V55.6028C138.019 54.0145 139.154 53.1113 141.859 53.1113C144.565 53.1113 145.533 53.9839 145.533 55.7417V61.3611H143.213V59.9296H143.112C142.946 60.3659 142.244 61.5179 140.341 61.5179C138.922 61.5179 137.553 60.8797 137.553 59.2139L137.549 59.2103ZM141.173 59.8954C142.325 59.8954 143.143 59.1797 143.143 58.5414V57.6382C143.01 57.8257 142.592 57.887 142.207 57.9501L140.989 58.152C140.237 58.2602 139.988 58.6027 139.988 59.0246C139.988 59.5222 140.338 59.8972 141.173 59.8972V59.8954Z" fill="white"/>
<path d="M151.607 54.9914C150.588 54.9914 149.788 55.5358 149.788 56.7654V61.3572H147.349V53.2625H149.788V54.9589H149.888C150.039 54.1963 150.872 53.1074 152.659 53.1074C154.345 53.1074 155.647 54.1188 155.647 56.2209V61.3572H153.208V56.7654C153.208 55.5358 152.624 54.9914 151.605 54.9914H151.607Z" fill="white"/>
<path d="M161.191 63.6C161.191 63.1331 160.574 62.9781 160.106 63.2575L159.454 62.5111L160.489 61.4529C158.652 61.1734 156.966 59.9421 156.966 57.328C156.966 54.3083 159.203 53.1094 161.34 53.1094C162.86 53.1094 164.996 53.6701 165.314 56.3941H163.109C162.892 55.4134 162.258 55.0096 161.322 55.0096C159.936 55.0096 159.269 55.9903 159.269 57.3298C159.269 58.6693 159.936 59.6176 161.322 59.6176C162.291 59.6176 162.892 59.1669 163.109 58.2006H165.314C165.08 60.5208 163.476 61.2978 162.057 61.4691L161.289 62.1704H161.405C162.256 62.1704 162.858 62.7924 162.858 63.6343C162.858 64.9269 161.421 65.2839 160.069 65.2839V64.1625C160.686 64.1932 161.187 64.0219 161.187 63.6018L161.191 63.6Z" fill="white"/>
<path d="M166.265 59.2103C166.265 57.4201 167.835 57.0307 169.338 56.8288L170.807 56.6268C171.61 56.5187 171.859 56.3925 171.859 55.9418V55.8336C171.859 54.9773 171.258 54.7447 170.508 54.7447C169.757 54.7447 169.022 54.9791 169.022 55.8192V55.9598L166.735 55.976V55.6028C166.735 54.0145 167.87 53.1113 170.575 53.1113C173.28 53.1113 174.249 53.9839 174.249 55.7417V61.3611H171.929V59.9296H171.828C171.662 60.3659 170.96 61.5179 169.057 61.5179C167.638 61.5179 166.269 60.8797 166.269 59.2139L166.265 59.2103ZM169.889 59.8954C171.041 59.8954 171.859 59.1797 171.859 58.5414V57.6382C171.726 57.8257 171.308 57.887 170.923 57.9501L169.705 58.152C168.953 58.2602 168.703 58.6027 168.703 59.0246C168.703 59.5222 169.053 59.8972 169.889 59.8972V59.8954Z" fill="white"/>
<path d="M175.481 57.3118C175.481 54.339 177.467 53.1094 179.289 53.1094C180.575 53.1094 181.526 53.7314 181.843 54.4327V50.4629H184.282V61.3592H181.843V60.191C181.526 60.8923 180.575 61.5142 179.289 61.5142C177.469 61.5142 175.481 60.2847 175.481 57.3118ZM179.873 59.6321C180.942 59.6321 181.944 58.9001 181.944 57.3118C181.944 55.7235 180.942 54.9916 179.873 54.9916C178.803 54.9916 177.786 55.7235 177.786 57.3118C177.786 58.9001 178.788 59.6321 179.873 59.6321Z" fill="white"/>
<path d="M185.598 59.2103C185.598 57.4201 187.169 57.0307 188.671 56.8288L190.141 56.6268C190.943 56.5187 191.193 56.3925 191.193 55.9418V55.8336C191.193 54.9773 190.591 54.7447 189.841 54.7447C189.091 54.7447 188.356 54.9791 188.356 55.8192V55.9598L186.068 55.976V55.6028C186.068 54.0145 187.203 53.1113 189.909 53.1113C192.614 53.1113 193.583 53.9839 193.583 55.7417V61.3611H191.262V59.9296H191.162C190.995 60.3659 190.294 61.5179 188.391 61.5179C186.971 61.5179 185.602 60.8797 185.602 59.2139L185.598 59.2103ZM189.222 59.8954C190.375 59.8954 191.193 59.1797 191.193 58.5414V57.6382C191.059 57.8257 190.642 57.887 190.257 57.9501L189.039 58.152C188.286 58.2602 188.037 58.6027 188.037 59.0246C188.037 59.5222 188.387 59.8972 189.222 59.8972V59.8954Z" fill="white"/>
</svg>
